<svg width="96" height="96" viewBox="0 0 96 96" fill="none" xmlns="http://www.w3.org/2000/svg">
  <circle cx="48" cy="48" r="43" fill="url(#bubbleFill)" stroke="url(#bubbleStroke)" stroke-width="2"/>
  <circle cx="48" cy="48" r="34" fill="url(#bubbleGlow)" opacity="0.76"/>
  <g transform="translate(24 24) scale(2)">
    <path d="M3 3h8v8H3zm2 2v4h4V5zm8-2h8v8h-8zm2 2v4h4V5zM3 13h8v8H3zm2 2v4h4v-4zm13-2h3v2h-3zm-2 2h2v2h-2zm2 2h3v2h-3zm-4-4h2v2h-2zm2 2h-2v-2zm-2 2h2v2h-2zm4-2h2v2h-2zm-2-4h2v2h-2zm4 4v3h-3v-3zm-1 1h-1v1h1z" fill="#FFE28A" />
  </g>
  <defs>
    <linearGradient id="bubbleFill" x1="19" y1="13" x2="80" y2="85" gradientUnits="userSpaceOnUse">
      <stop stop-color="#3B3343"/>
      <stop offset="0.54" stop-color="#17121F"/>
      <stop offset="1" stop-color="#5B168F"/>
    </linearGradient>
    <linearGradient id="bubbleStroke" x1="18" y1="14" x2="78" y2="83" gradientUnits="userSpaceOnUse">
      <stop stop-color="#FFE28A" stop-opacity="0.92"/>
      <stop offset="0.52" stop-color="#A020F0" stop-opacity="0.58"/>
      <stop offset="1" stop-color="#F3C24A" stop-opacity="0.88"/>
    </linearGradient>
    <radialGradient id="bubbleGlow" cx="0" cy="0" r="1" gradientUnits="userSpaceOnUse" gradientTransform="translate(35 25) rotate(55) scale(54)">
      <stop stop-color="#FFE28A" stop-opacity="0.22"/>
      <stop offset="0.58" stop-color="#A020F0" stop-opacity="0.16"/>
      <stop offset="1" stop-color="#17121F" stop-opacity="0"/>
    </radialGradient>
  </defs>
</svg>
